<?xml version="1.0" encoding="UTF-8" standalone="no"?><!DOCTYPE svg PUBLIC "-//W3C//DTD SVG 1.1//EN" "http://www.w3.org/Graphics/SVG/1.1/DTD/svg11.dtd"><svg width="100%" height="100%" viewBox="0 0 12800 5013" version="1.1" xmlns="http://www.w3.org/2000/svg" xmlns:xlink="http://www.w3.org/1999/xlink" xml:space="preserve" xmlns:serif="http://www.serif.com/" style="fill-rule:evenodd;clip-rule:evenodd;stroke-linejoin:round;stroke-miterlimit:2;"><g id="Background"><path d="M8019.399,1836.478c54.757,-4.817 111.756,-13.347 236.307,-0.466c89.947,9.302 228.714,53.549 315.666,116.478c77.496,56.085 136.713,105.51 206.852,230.334c105.434,187.636 130.355,557.504 -69.953,800.047c-172.213,208.524 -390.058,235.25 -502.264,246.015c-202.218,19.401 -403.122,-48.982 -501.246,-120.493c-95.142,-69.338 -145.327,-118.441 -203.914,-224.222c-13.134,-23.713 -80.327,-145.034 -85.772,-327.807c-11.653,-391.152 239.473,-669.3 604.324,-719.886Zm149.826,1125.299c-221.737,16.191 -322.853,-118.252 -341.16,-140.506c-108.457,-131.839 -130.792,-423.663 12.442,-592.685c158.072,-186.53 454.48,-164.66 589.057,-8.413c150.446,174.67 127.501,472.373 4.78,613.693c-47.884,55.141 -116.575,115.115 -265.12,127.911Z" style="fill:#c47030;"/><path d="M5013.267,1481.235c0.304,-2.251 -4.501,-31.108 18.468,-34.669c19.726,-3.058 19.804,-1.175 249.516,-1.001c39.674,0.03 53.903,-3.924 53.972,35.677c0.189,109.774 -0.737,109.504 -0.704,550.003c0.02,264.356 -2.137,264.231 -1.789,287.206c0.163,10.764 0.12,13.686 10.927,13.712c14.855,0.036 12.419,-5.166 22.246,-16.255c40.391,-45.575 84.809,-89.855 84.848,-89.897c88.322,-97.339 472.704,-502.856 514.875,-547.678c137.36,-145.995 197.222,-213.661 213.535,-225.364c20.769,-14.898 124.715,-2.597 339.55,-8.72c23.39,-0.667 31.577,9.565 14.635,25.89c-16.164,15.576 -16.32,15.315 -461.962,513.42c-15.611,17.449 -158.865,177.568 -195.504,217.776c-23.604,25.904 -33.103,30.556 -11.975,58.45c9.065,11.967 86.747,114.523 114.421,148.739c24.621,30.443 232.958,298.74 301.796,386.088c104.601,132.727 104.217,132.705 208.788,265.412c36.356,46.138 34.983,47.004 71.435,93.095c31.614,39.975 41.899,39.884 32.961,52.845c-7.834,11.359 -10.516,6.599 -24.18,5.333c-20.794,-1.926 -295.038,-0.742 -312.965,-1.171c-35.881,-0.858 -39.798,-16.318 -67.417,-49.745c-224.038,-271.157 -447.82,-547.315 -484.055,-590.341c-7.554,-8.97 -71.241,-87.846 -72.713,-89.505c-19.657,-22.152 -26.422,-8.78 -73.498,40.308c-97.963,102.151 -100.063,99.756 -198.37,201.634c-30.538,31.647 -25.856,37.067 -25.849,133.776c0.024,336.443 1.767,338.485 -6.283,346.825c-6.535,6.771 -31.382,6.966 -34.172,6.988c-20.01,0.157 -169.887,1.336 -250.131,0.48c-37.39,-0.399 -31.599,-20.346 -30.596,-41.919c1.079,-23.197 0.484,-1602.4 0.191,-1687.394Z" style="fill:#c57030;"/><path d="M10506.918,2423.756c22.812,-2.516 22.671,-2.46 24.637,-2.717c105.137,-13.74 420.771,-2.861 461.972,-6.879c30.835,-3.007 31.251,-14.236 26.263,-58.003c-20.334,-178.447 -130.294,-231.468 -225.558,-252.059c-65.226,-14.098 -182.972,-6.401 -213.46,-0.415c-267.946,52.606 -289.308,148.231 -317.615,106.614c-2.468,-3.629 -37.676,-78.186 -43.505,-91.957c-16.385,-38.706 -48.073,-98.179 -47.495,-111.948c0.756,-17.995 39.832,-43.854 148.791,-95.22c77.053,-36.325 212.523,-69.804 273.411,-74.757c115.706,-9.412 519.024,-48.416 682.976,259.3c29.594,55.544 52.875,155.939 57.833,197.462c7.238,60.617 6.979,60.638 6.291,763.07c-0.129,131.38 2.398,139.934 -10.274,149.892c-5.928,4.659 -44.039,4.056 -74.929,4.126c-200.816,0.453 -202.495,0.488 -209.496,-6.893c-6.419,-6.766 -6.338,-31.821 -6.328,-34.638c0.26,-80.377 2.541,-80.276 2.411,-87.258c-0.289,-15.484 -15.773,-14.015 -21.518,-9.692c-5.051,3.801 1.831,10.218 -54.15,57.553c-151.244,127.884 -449.154,121.435 -597.574,62.25c-82.757,-33 -169.505,-87.561 -222.487,-199.412c-46.421,-97.999 -43.466,-235.901 -7.915,-325.259c86.661,-217.823 355.461,-241.206 367.718,-243.16Zm199.628,575.491c-23.631,0.771 -67.701,5.117 -138.803,-14.316c-167.39,-45.749 -172.334,-213.112 -96.977,-289.174c76.088,-76.8 184.589,-66.179 510.482,-66.292c19.451,-0.007 40.776,-3.405 42.406,26.285c6.111,111.317 -12.003,151.05 -17.442,162.981c-29.302,64.275 -80.11,103.41 -89.098,110.333c-82.924,63.873 -174.753,68.164 -210.567,70.182Z" style="fill:#c47030;"/><path d="M9875.66,2068.775c-1.928,16.571 6.484,38.054 -31.868,39.308c-24.885,0.814 -297.883,-1.663 -311.512,1.732c-13.5,3.362 -16.018,18.901 -16.359,21.004c-1.777,10.962 -0.115,10.863 -0.93,400.419c-0.551,263.788 -6.396,357.03 69.75,407.345c53.803,35.552 170.687,34.781 257.183,-11.169c31.752,-16.868 33.719,-0.501 50.377,41.907c5.055,12.87 58.038,147.756 59.419,162.311c0.297,3.131 1.514,15.954 -24.287,30.907c-192.306,111.447 -460.774,81.83 -586.951,-27.476c-157.728,-136.639 -142.934,-281.966 -142.735,-566.301c0.024,-34.006 0.282,-403.938 0.102,-425.069c-0.337,-39.377 -14.623,-35.017 -54.091,-35.007c-138.328,0.035 -138.708,1.609 -150.031,-2.378c-16.919,-5.957 -12.188,-12.725 -11.903,-187.558c0.032,-19.342 -1.933,-45.921 5.677,-54.976c9.092,-10.818 11.498,-9.45 143.748,-9.857c3.935,-0.012 46.854,-0.144 49.17,-1.074c19.977,-8.023 16.904,-12.617 17.164,-34.015c1.609,-132.569 -3.593,-243.152 4.354,-252.979c9.395,-11.617 11.968,-10.092 129.314,-10.141c171.436,-0.073 177.78,-1.503 182.677,14.64c4.91,16.183 -3.453,258.505 5.498,273.026c9.522,15.447 30.572,10.52 274.328,11.293c32.553,0.103 72.597,-3.233 78.589,12.191c7.573,19.494 -0.737,47.671 3.318,201.919Z" style="fill:#c77030;"/><path d="M6801.583,3168.696c0.163,-383.314 0.326,-766.628 0.489,-1149.942c-0.101,-149.395 -3.533,-157.731 16.664,-162.561c3.933,-0.941 34.513,-0.99 37.516,-0.995c234.436,-0.379 253.544,-4.703 260.772,14.21c1.985,5.193 1.669,33.891 1.637,36.841c-0.912,82.995 -2.509,228.397 -1.26,1037.502c0.387,250.939 4.6,257.01 -10.721,263.367c-6.694,2.777 -34.884,3.017 -37.928,3.043c-19.011,0.162 -176.186,1.498 -237.648,0.095c-30.807,-0.703 -28.266,-10.875 -29.52,-41.559Z" style="fill:#c87131;"/><path d="M4236.778,2481.038c-3.696,19.854 8.031,31.932 -68.823,86.627c-77.83,55.39 -354.094,269.933 -836.572,291.561c-364.364,16.333 -749.835,-97.757 -1073.641,-330.161c-206.943,-148.528 -288.631,-248.784 -460.821,-401.45c-20.565,-18.233 -141.097,-133.832 -305.935,-215.711c-122.815,-61.005 -250.912,-81.237 -270.572,-95.679c-56.307,-41.361 -18.402,-125.7 48.684,-111.8c113.229,23.461 295.134,90.68 422.001,180.696c233.134,165.415 284.859,259.411 555.186,480.433c265.491,217.067 546.804,296.526 598.756,311.2c561.827,158.692 1019.284,-33.881 1234.765,-197.481c66.608,-50.571 86.375,-68.392 126.395,-47.939c22.45,11.474 27.857,32.751 28.771,36.346c1.107,4.355 0.7,9.004 1.806,13.359Z" style="fill:#c56d2c;"/><path d="M3031.726,3300.667c-452.348,-44.269 -846.806,-274.9 -1116.197,-604.374c-77.889,-95.261 -107.041,-146.571 -125.685,-175.11c-58.135,-88.988 10.535,-121.689 41.729,-119.9c74.805,4.29 39.479,92.525 303.524,351.08c288.357,282.361 635.819,396.303 883.147,421.424c112.471,11.423 112.467,7.442 225.505,7.312c68.898,-0.079 86.043,61.059 61.551,99.449c-20.884,32.734 -86.14,33.673 -273.574,20.119Z" style="fill:#c76e2b;"/><path d="M2219.121,2236.309c73.081,-4.104 171.816,-18.472 186.685,-20.635c82.316,-11.978 81.71,-14.127 163.892,-28.247c275.988,-47.417 364.232,-79.32 611.15,-98.74c207.213,-16.297 423.21,18.376 424.685,18.872c26.751,8.996 -21.482,43.072 -32.79,53.193c-9.776,8.75 -9.36,8.957 -19.007,17.645c-50.448,45.435 -55.554,40.43 -109.667,36.826c-200.196,-13.333 -246.906,-1.541 -388.461,11.169c-124.816,11.208 -701.315,139.412 -748.342,125.624c-7.358,-2.157 -14.14,-4.146 -76.906,-57.198c-43.708,-36.943 -46.225,-34.521 -48.087,-39.117c-1.884,-4.648 0.505,-17.653 1.797,-18.43c2.269,-1.365 23.618,-1.135 35.052,-0.962Z" style="fill:#c36d2c;"/><path d="M2473.511,2389.259c0.149,-5.023 2.985,-4.107 3.138,-9.239c0.057,-1.915 -3.861,-3.533 -2.713,-5.066c2.124,-2.837 18.786,-3.666 20.447,-3.749c8.036,-0.4 48.368,-2.408 99.627,-13.74c22.685,-5.015 130.237,-25.557 137.222,-26.407c15.124,-1.84 222.333,34.204 362.368,40.791c118.841,5.59 118.596,0.842 237.299,-7.21c99.852,-6.773 221.681,-31.695 263.69,-42.511c288.263,-74.222 328.107,-125.86 348.981,-125.538c2.235,0.034 2.418,3.808 4.018,5.368c1.835,1.789 5.544,2.091 6.179,4.574c2.104,8.226 -49.232,84.284 -53.98,91.318c-45.614,67.58 -43.893,74.981 -132.388,104.349c-311.125,103.25 -607.806,96.152 -661.231,94.874c-177.231,-4.24 -389.01,-42.702 -498.529,-71.682c-123.847,-32.771 -123.664,-32.388 -134.128,-36.131Z" style="fill:#c46e2c;"/><path d="M7104.189,1578.98c-3.533,3.033 -45.842,48.187 -135.464,51.504c-114.266,4.229 -214.642,-74.63 -207.464,-211.336c5.289,-100.741 103.86,-197.965 244.544,-173.066c106.955,18.929 179.29,116.062 154.74,236.038c-8.191,40.03 -20.752,61.881 -56.355,96.86Z" style="fill:#c57030;"/><path d="M3592.691,2276.759c-12.062,2.904 -11.778,2.762 -23.664,5.697c-75.815,18.723 -77.01,23.743 -83.785,17.925c-0.931,-0.799 -1.396,-14.456 -0.27,-16.446c2.915,-5.154 31.596,-13.803 80.586,-56.403c237.798,-206.779 272.069,-288.954 468.939,-442.036c21.461,-16.688 174.06,-126.485 221.608,-125.293c52.264,1.31 91.223,76.795 22.906,117.387c-57.585,34.216 -138.902,61.66 -328.839,247.457c-60.046,58.737 -58.632,59.892 -116.61,120.871c-5.341,5.618 -49.534,52.098 -68.629,68.4c-36.353,31.035 -95.633,42.769 -172.241,62.442Z" style="fill:#c36d29;"/><path d="M1906.917,2363.201c-80.634,-10.307 -143.241,-19.161 -238.594,-42.826c-202.934,-50.366 -379.771,-153.359 -421.56,-181.039c-78.929,-52.281 -20,-130.086 33.81,-117.631c48.121,11.138 203.743,141.774 524.743,201.836c54.004,10.105 49.952,20.155 134.854,99.023c13.021,12.095 13.963,10.741 27.313,22.345c10.375,9.019 16.855,9.507 9.291,20.966c-6.579,9.966 -9.551,3.027 -69.857,-2.674Z" style="fill:#c76d2a;"/><path d="M3331.249,2961.115c272.807,-7.078 414.229,-97.237 449.967,-97.291c55.188,-0.084 99.871,85.929 10.424,125.144c-162.413,71.204 -403.139,110.962 -585.448,93.06c-62.547,-6.142 -62.393,-5.523 -124.7,-14.502c-25.26,-3.641 -26.068,-0.754 -41.698,-8.794c-0.523,-0.269 -10.731,-10.285 3.065,-15.932c25.557,-10.461 29.062,-0.437 164.57,-58.854c47.321,-20.4 46.965,-25.548 98.57,-23.362c2.019,0.085 1.87,0.039 25.25,0.532Z" style="fill:#c56e2b;"/><path d="M4131.185,1976.346c4.387,0.988 9.038,0.351 13.425,1.339c3.926,0.884 17.81,7.369 19.904,9.065c43.847,35.511 16.228,98.434 9.601,121.08c-58.605,200.27 -183.027,366.817 -219.241,396.725c-45.236,37.359 -231.024,111.364 -286.037,131.757c-40.551,15.032 -23.663,-13.569 -22.367,-15.308c3.226,-4.33 96.344,-45.046 233.383,-215.852c162.601,-202.666 178.528,-377.832 204.978,-408.281c17.335,-19.955 20.647,-14.832 46.354,-20.525Z" style="fill:#c26d29;"/><path d="M1393.815,2350.889c13.223,3.424 17.076,-3.067 59.786,33.522c123.392,105.709 182.197,129.808 254.736,167.654c38.211,19.936 53.607,13.111 93.432,69.728c6.286,8.936 55.856,79.408 84.872,106.995c6.819,6.483 8.876,5.758 8.95,15.354c0.01,1.348 0.09,11.654 -14.195,9.076c-7.409,-1.337 -6.732,-3.272 -88.669,-31.548c-26.719,-9.22 -175.964,-60.723 -314.311,-161.362c-131.933,-95.974 -159.292,-120.006 -144.774,-165.696c1.027,-3.232 6.107,-19.218 25.858,-33.596c10.875,-7.916 11.805,-5.413 34.316,-10.127Z" style="fill:#c66e2b;"/><path d="M2157.044,3087.89c-97.81,-18.899 -249.592,-43.267 -451.213,-155.955c-76.358,-42.677 -26.81,-149.421 60.265,-107.659c38.059,18.253 37.14,19.442 74.898,37.851c160.345,78.179 237.721,71.211 280.155,103.283c49.917,37.728 48.698,38.948 98.987,76.434c55.153,41.111 75.161,40.947 76.122,51.618c2.055,22.809 -32.557,5.944 -139.215,-5.573Z" style="fill:#c76d2a;"/><path d="M3130.815,2899.24c90.751,7.702 107.327,-0.403 114.793,5.198c8.94,6.708 10.306,11.204 0.028,15.597c-16.988,7.262 -86.64,37.038 -215.647,82.623c-78.985,27.91 -255.938,69.002 -285.994,64.652c-16.885,-2.444 -20.331,-2.942 -200.093,-73.774c-9.366,-3.691 -12.111,-2.401 -12.929,-12.256c-1.672,-20.154 18.774,-4.19 125.96,-20.73c235.596,-36.354 315.923,-76.47 348.857,-74.71c10.045,0.537 9.51,5.453 125.025,13.398Z" style="fill:#c36c29;"/><path d="M2455.968,2800.583c-193.532,6.096 -196.102,2.433 -224.258,-19.892c-38.412,-30.457 -104.728,-96.198 -105.937,-97.337c-5.769,-5.437 -5.641,-5.87 -5.319,-13.876c0.097,-2.403 -0.595,-5.61 1.295,-7.097c0.895,-0.704 43.271,5.559 47.024,6.113c73.57,10.873 225.133,7.592 237.953,10.902c27.183,7.018 81.049,49.213 189.134,86.595c10.97,3.794 12.802,4.348 12.405,15.884c-0.391,11.368 -6.859,6.03 -76.904,13.159c-6.017,0.612 -20.494,2.086 -75.394,5.55Z" style="fill:#c76e2a;"/><path d="M4378.562,2077.807c-4.738,3.812 -76.481,58.314 -123.352,89.418c-44.283,29.387 -50.767,50.754 -62.302,26.775c-4.965,-10.321 12.71,-7.425 41.374,-137.052c8.574,-38.776 16.535,-34.706 56.567,-66.904c93.662,-75.335 115.225,-107.156 166.563,-72.77c14.138,9.47 44.049,51.965 -4.098,98.398c-5.597,5.398 -12.108,11.677 -74.751,62.135Z" style="fill:#c56d28;"/><path d="M2867.431,2636.268c-32.777,-6.332 -32.574,-6.258 -35.4,-6.839c-10.096,-2.074 -13.684,0.086 -14.395,-10.412c-1.215,-17.94 6.836,-13.711 24.283,-17.227c37.993,-7.657 62.459,-15.691 150.299,-49.437c54.345,-20.878 56.268,-10.037 189.02,-10.386c108.812,-0.286 122.45,-18.833 122.453,2.149c0.001,9.001 -0.437,9.804 -8.837,13.327c-87.875,36.846 -92.181,46.996 -225.425,100.496c-27.992,11.239 -35.486,21.352 -201.999,-21.671Z" style="fill:#c46d2a;"/></g></svg>