<?xml version="1.0" encoding="UTF-8" standalone="no"?><!DOCTYPE svg PUBLIC "-//W3C//DTD SVG 1.1//EN" "http://www.w3.org/Graphics/SVG/1.1/DTD/svg11.dtd"><svg width="100%" height="100%" viewBox="0 0 3287 1649" version="1.1" xmlns="http://www.w3.org/2000/svg" xmlns:xlink="http://www.w3.org/1999/xlink" xml:space="preserve" xmlns:serif="http://www.serif.com/" style="fill-rule:evenodd;clip-rule:evenodd;stroke-linejoin:round;stroke-miterlimit:2;"><path d="M3043.68,820.845c-3.696,19.854 8.031,31.932 -68.823,86.627c-77.83,55.39 -354.094,269.933 -836.572,291.561c-364.364,16.333 -749.835,-97.757 -1073.641,-330.161c-206.943,-148.528 -288.631,-248.784 -460.821,-401.45c-20.565,-18.233 -141.097,-133.832 -305.935,-215.711c-122.815,-61.005 -250.912,-81.237 -270.572,-95.679c-56.307,-41.361 -18.402,-125.7 48.684,-111.8c113.229,23.461 295.134,90.68 422.001,180.696c233.134,165.415 284.859,259.411 555.186,480.433c265.491,217.067 546.804,296.526 598.756,311.2c561.827,158.692 1019.284,-33.881 1234.765,-197.481c66.608,-50.571 86.375,-68.392 126.395,-47.939c22.45,11.474 27.857,32.751 28.771,36.346c1.107,4.355 0.7,9.004 1.806,13.359Z" style="fill:#c56d2c;"/><path d="M1838.628,1640.474c-452.348,-44.269 -846.806,-274.9 -1116.197,-604.374c-77.889,-95.261 -107.041,-146.571 -125.685,-175.11c-58.135,-88.988 10.535,-121.689 41.729,-119.9c74.805,4.29 39.479,92.525 303.524,351.08c288.357,282.361 635.819,396.303 883.147,421.424c112.471,11.423 112.467,7.442 225.505,7.312c68.898,-0.079 86.043,61.059 61.551,99.449c-20.884,32.734 -86.14,33.673 -273.574,20.119Z" style="fill:#c76e2b;"/><path d="M1026.023,576.116c73.081,-4.104 171.816,-18.472 186.685,-20.635c82.316,-11.978 81.71,-14.127 163.892,-28.247c275.988,-47.417 364.232,-79.32 611.15,-98.74c207.213,-16.297 423.21,18.376 424.685,18.872c26.751,8.996 -21.482,43.072 -32.79,53.193c-9.776,8.75 -9.36,8.957 -19.007,17.645c-50.448,45.435 -55.554,40.43 -109.667,36.826c-200.196,-13.333 -246.906,-1.541 -388.461,11.169c-124.816,11.208 -701.315,139.412 -748.342,125.624c-7.358,-2.157 -14.14,-4.146 -76.906,-57.198c-43.708,-36.943 -46.225,-34.521 -48.087,-39.117c-1.884,-4.648 0.505,-17.653 1.797,-18.43c2.269,-1.365 23.618,-1.135 35.052,-0.962Z" style="fill:#c36d2c;"/><path d="M1280.414,729.066c0.149,-5.023 2.985,-4.107 3.138,-9.239c0.057,-1.915 -3.861,-3.533 -2.713,-5.066c2.124,-2.837 18.786,-3.666 20.447,-3.749c8.036,-0.4 48.368,-2.408 99.627,-13.74c22.685,-5.015 130.237,-25.557 137.222,-26.407c15.124,-1.84 222.333,34.204 362.368,40.791c118.841,5.59 118.596,0.842 237.299,-7.21c99.852,-6.773 221.681,-31.695 263.69,-42.511c288.263,-74.222 328.107,-125.86 348.981,-125.538c2.235,0.034 2.418,3.808 4.018,5.368c1.835,1.789 5.544,2.091 6.179,4.574c2.104,8.226 -49.232,84.284 -53.98,91.318c-45.614,67.58 -43.893,74.981 -132.388,104.349c-311.125,103.25 -607.806,96.152 -661.231,94.874c-177.231,-4.24 -389.01,-42.702 -498.529,-71.682c-123.847,-32.771 -123.664,-32.388 -134.128,-36.131Z" style="fill:#c46e2c;"/><path d="M2399.593,616.566c-12.062,2.904 -11.778,2.762 -23.664,5.697c-75.815,18.723 -77.01,23.743 -83.785,17.925c-0.931,-0.799 -1.396,-14.456 -0.27,-16.446c2.915,-5.154 31.596,-13.803 80.586,-56.403c237.798,-206.779 272.069,-288.954 468.939,-442.036c21.461,-16.688 174.06,-126.485 221.608,-125.293c52.264,1.31 91.223,76.795 22.906,117.387c-57.585,34.216 -138.902,61.66 -328.839,247.457c-60.046,58.737 -58.632,59.892 -116.61,120.871c-5.341,5.618 -49.534,52.098 -68.629,68.4c-36.353,31.035 -95.633,42.769 -172.241,62.442Z" style="fill:#c36d29;"/><path d="M713.82,703.008c-80.634,-10.307 -143.241,-19.161 -238.594,-42.826c-202.934,-50.366 -379.771,-153.359 -421.56,-181.039c-78.929,-52.281 -20,-130.086 33.81,-117.631c48.121,11.138 203.743,141.774 524.743,201.836c54.004,10.105 49.952,20.155 134.854,99.023c13.021,12.095 13.963,10.741 27.313,22.345c10.375,9.019 16.855,9.507 9.291,20.966c-6.579,9.966 -9.551,3.027 -69.857,-2.674Z" style="fill:#c76d2a;"/><path d="M2138.151,1300.922c272.807,-7.078 414.229,-97.237 449.967,-97.291c55.188,-0.084 99.871,85.929 10.424,125.144c-162.413,71.204 -403.139,110.962 -585.448,93.06c-62.547,-6.142 -62.393,-5.523 -124.7,-14.502c-25.26,-3.641 -26.068,-0.754 -41.698,-8.794c-0.523,-0.269 -10.731,-10.285 3.065,-15.932c25.557,-10.461 29.062,-0.437 164.57,-58.854c47.321,-20.4 46.965,-25.548 98.57,-23.362c2.019,0.085 1.87,0.039 25.25,0.532Z" style="fill:#c56e2b;"/><path d="M2938.087,316.153c4.387,0.988 9.038,0.351 13.425,1.339c3.926,0.884 17.81,7.369 19.904,9.065c43.847,35.511 16.228,98.434 9.601,121.08c-58.605,200.27 -183.027,366.817 -219.241,396.725c-45.236,37.359 -231.024,111.364 -286.037,131.757c-40.551,15.032 -23.663,-13.569 -22.367,-15.308c3.226,-4.33 96.344,-45.046 233.383,-215.852c162.601,-202.666 178.528,-377.832 204.978,-408.281c17.335,-19.955 20.647,-14.832 46.354,-20.525Z" style="fill:#c26d29;"/><path d="M200.717,690.696c13.223,3.424 17.076,-3.067 59.786,33.522c123.392,105.709 182.197,129.808 254.736,167.654c38.211,19.936 53.607,13.111 93.432,69.728c6.286,8.936 55.856,79.408 84.872,106.995c6.819,6.483 8.876,5.758 8.95,15.354c0.01,1.348 0.09,11.654 -14.195,9.076c-7.409,-1.337 -6.732,-3.272 -88.669,-31.548c-26.719,-9.22 -175.964,-60.723 -314.311,-161.362c-131.933,-95.974 -159.292,-120.006 -144.774,-165.696c1.027,-3.232 6.107,-19.218 25.858,-33.596c10.875,-7.916 11.805,-5.413 34.316,-10.127Z" style="fill:#c66e2b;"/><path d="M963.946,1427.697c-97.81,-18.899 -249.592,-43.267 -451.213,-155.955c-76.358,-42.677 -26.81,-149.421 60.265,-107.659c38.059,18.253 37.14,19.442 74.898,37.851c160.345,78.179 237.721,71.211 280.155,103.283c49.917,37.728 48.698,38.948 98.987,76.434c55.153,41.111 75.161,40.947 76.122,51.618c2.055,22.809 -32.557,5.944 -139.215,-5.573Z" style="fill:#c76d2a;"/><path d="M1937.718,1239.047c90.751,7.702 107.327,-0.403 114.793,5.198c8.94,6.708 10.306,11.204 0.028,15.597c-16.988,7.262 -86.64,37.038 -215.647,82.623c-78.985,27.91 -255.938,69.002 -285.994,64.652c-16.885,-2.444 -20.331,-2.942 -200.093,-73.774c-9.366,-3.691 -12.111,-2.401 -12.929,-12.256c-1.672,-20.154 18.774,-4.19 125.96,-20.73c235.596,-36.354 315.923,-76.47 348.857,-74.71c10.045,0.537 9.51,5.453 125.025,13.398Z" style="fill:#c36c29;"/><path d="M1262.87,1140.39c-193.532,6.096 -196.102,2.433 -224.258,-19.892c-38.412,-30.457 -104.728,-96.198 -105.937,-97.337c-5.769,-5.437 -5.641,-5.87 -5.319,-13.876c0.097,-2.403 -0.595,-5.61 1.295,-7.097c0.895,-0.704 43.271,5.559 47.024,6.113c73.57,10.873 225.133,7.592 237.953,10.902c27.183,7.018 81.049,49.213 189.134,86.595c10.97,3.794 12.802,4.348 12.405,15.884c-0.391,11.368 -6.859,6.03 -76.904,13.159c-6.017,0.612 -20.494,2.086 -75.394,5.55Z" style="fill:#c76e2a;"/><path d="M3185.464,417.614c-4.738,3.812 -76.481,58.314 -123.352,89.418c-44.283,29.387 -50.767,50.754 -62.302,26.775c-4.965,-10.321 12.71,-7.425 41.374,-137.052c8.574,-38.776 16.535,-34.706 56.567,-66.904c93.662,-75.335 115.225,-107.156 166.563,-72.77c14.138,9.47 44.049,51.965 -4.098,98.398c-5.597,5.398 -12.108,11.677 -74.751,62.135Z" style="fill:#c56d28;"/><path d="M1669.593,976.263c-30.662,-6.581 -27.576,-6.265 -30.402,-6.846c-10.096,-2.074 -24.244,-6.913 -24.364,-10.189c-0.31,-8.494 16.548,-14.115 33.995,-17.631c37.993,-7.657 62.459,-15.691 150.299,-49.437c54.345,-20.878 56.268,-10.037 189.02,-10.386c108.812,-0.286 122.45,-18.833 122.453,2.149c0.001,9.001 -0.437,9.804 -8.837,13.327c-87.875,36.846 -92.181,46.996 -225.425,100.496c-27.992,11.239 -40.226,21.54 -206.739,-21.483Z" style="fill:#c46d2a;"/></svg>