<?xml version="1.0" encoding="UTF-8" standalone="no"?><!DOCTYPE svg PUBLIC "-//W3C//DTD SVG 1.1//EN" "http://www.w3.org/Graphics/SVG/1.1/DTD/svg11.dtd"><svg width="100%" height="100%" viewBox="0 0 6330 1991" version="1.1" xmlns="http://www.w3.org/2000/svg" xmlns:xlink="http://www.w3.org/1999/xlink" xml:space="preserve" xmlns:serif="http://www.serif.com/" style="fill-rule:evenodd;clip-rule:evenodd;stroke-linejoin:round;stroke-miterlimit:2;"><path d="M3007.239,594.339c54.757,-4.817 111.756,-13.347 236.307,-0.466c89.947,9.302 228.714,53.549 315.666,116.478c77.496,56.085 136.713,105.51 206.852,230.334c105.434,187.636 130.355,557.504 -69.953,800.047c-172.213,208.524 -390.058,235.25 -502.264,246.015c-202.218,19.401 -403.122,-48.982 -501.246,-120.493c-95.142,-69.338 -145.327,-118.441 -203.914,-224.222c-13.134,-23.713 -80.327,-145.034 -85.772,-327.807c-11.653,-391.152 239.473,-669.3 604.324,-719.886Zm149.826,1125.299c-221.737,16.191 -322.853,-118.252 -341.16,-140.506c-108.457,-131.839 -130.792,-423.663 12.442,-592.685c158.072,-186.53 454.48,-164.66 589.057,-8.413c150.446,174.67 127.501,472.373 4.78,613.693c-47.884,55.141 -116.575,115.115 -265.12,127.911Z" style="fill:#c47030;"/><path d="M1.107,239.096c0.304,-2.251 -4.501,-31.108 18.468,-34.669c19.726,-3.058 19.804,-1.175 249.516,-1.001c39.674,0.03 53.903,-3.924 53.972,35.677c0.189,109.774 -0.737,109.504 -0.704,550.003c0.02,264.356 -2.137,264.231 -1.789,287.206c0.163,10.764 0.12,13.686 10.927,13.712c14.855,0.036 12.419,-5.166 22.246,-16.255c40.391,-45.575 84.809,-89.855 84.848,-89.897c88.322,-97.339 472.704,-502.856 514.875,-547.678c137.36,-145.995 197.222,-213.661 213.535,-225.364c20.769,-14.898 124.715,-2.597 339.55,-8.72c23.39,-0.667 31.577,9.565 14.635,25.89c-16.164,15.576 -16.32,15.315 -461.962,513.42c-15.611,17.449 -158.865,177.568 -195.504,217.776c-23.604,25.904 -33.103,30.556 -11.975,58.45c9.065,11.967 86.747,114.523 114.421,148.739c24.621,30.443 232.958,298.74 301.796,386.088c104.601,132.727 104.217,132.705 208.788,265.412c36.356,46.138 34.983,47.004 71.435,93.095c31.614,39.975 41.899,39.884 32.961,52.845c-7.834,11.359 -10.516,6.599 -24.18,5.333c-20.794,-1.926 -295.038,-0.742 -312.965,-1.171c-35.881,-0.858 -39.798,-16.318 -67.417,-49.745c-224.038,-271.157 -447.82,-547.315 -484.055,-590.341c-7.554,-8.97 -71.241,-87.846 -72.713,-89.505c-19.657,-22.152 -26.422,-8.78 -73.498,40.308c-97.963,102.151 -100.063,99.756 -198.37,201.634c-30.538,31.647 -25.856,37.067 -25.849,133.776c0.024,336.443 1.767,338.485 -6.283,346.825c-6.535,6.771 -31.382,6.966 -34.172,6.988c-20.01,0.157 -169.887,1.336 -250.131,0.48c-37.39,-0.399 -31.599,-20.346 -30.596,-41.919c1.079,-23.197 0.484,-1602.4 0.191,-1687.394Z" style="fill:#c57030;"/><path d="M5494.758,1181.617c22.812,-2.516 22.671,-2.46 24.637,-2.717c105.137,-13.74 420.771,-2.861 461.972,-6.879c30.835,-3.007 31.251,-14.236 26.263,-58.003c-20.334,-178.447 -130.294,-231.468 -225.558,-252.059c-65.226,-14.098 -182.972,-6.401 -213.46,-0.415c-267.946,52.606 -289.308,148.231 -317.615,106.614c-2.468,-3.629 -37.676,-78.186 -43.505,-91.957c-16.385,-38.706 -48.073,-98.179 -47.495,-111.948c0.756,-17.995 39.832,-43.854 148.791,-95.22c77.053,-36.325 212.523,-69.804 273.411,-74.757c115.706,-9.412 519.024,-48.416 682.976,259.3c29.594,55.544 52.875,155.939 57.833,197.462c7.238,60.617 6.979,60.638 6.291,763.07c-0.129,131.38 2.398,139.934 -10.274,149.892c-5.928,4.659 -44.039,4.056 -74.929,4.126c-200.816,0.453 -202.495,0.488 -209.496,-6.893c-6.419,-6.766 -6.338,-31.821 -6.328,-34.638c0.26,-80.377 2.541,-80.276 2.411,-87.258c-0.289,-15.484 -15.773,-14.015 -21.518,-9.692c-5.051,3.801 1.831,10.218 -54.15,57.553c-151.244,127.884 -449.154,121.435 -597.574,62.25c-82.757,-33 -169.505,-87.561 -222.487,-199.412c-46.421,-97.999 -43.466,-235.901 -7.915,-325.259c86.661,-217.823 355.461,-241.206 367.718,-243.16Zm199.628,575.491c-23.631,0.771 -67.701,5.117 -138.803,-14.316c-167.39,-45.749 -172.334,-213.112 -96.977,-289.174c76.088,-76.8 184.589,-66.179 510.482,-66.292c19.451,-0.007 40.776,-3.405 42.406,26.285c6.111,111.317 -12.003,151.05 -17.442,162.981c-29.302,64.275 -80.11,103.41 -89.098,110.333c-82.924,63.873 -174.753,68.164 -210.567,70.182Z" style="fill:#c47030;"/><path d="M4863.499,826.636c-1.928,16.571 6.484,38.054 -31.868,39.308c-24.885,0.814 -297.883,-1.663 -311.512,1.732c-13.5,3.362 -16.018,18.901 -16.359,21.004c-1.777,10.962 -0.115,10.863 -0.93,400.419c-0.551,263.788 -6.396,357.03 69.75,407.345c53.803,35.552 170.687,34.781 257.183,-11.169c31.752,-16.868 33.719,-0.501 50.377,41.907c5.055,12.87 58.038,147.756 59.419,162.311c0.297,3.131 1.514,15.954 -24.287,30.907c-192.306,111.447 -460.774,81.83 -586.951,-27.476c-157.728,-136.639 -142.934,-281.966 -142.735,-566.301c0.024,-34.006 0.282,-403.938 0.102,-425.069c-0.337,-39.377 -14.623,-35.017 -54.091,-35.007c-138.328,0.035 -138.708,1.609 -150.031,-2.378c-16.919,-5.957 -12.188,-12.725 -11.903,-187.558c0.032,-19.342 -1.933,-45.921 5.677,-54.976c9.092,-10.818 11.498,-9.45 143.748,-9.857c3.935,-0.012 46.854,-0.144 49.17,-1.074c19.977,-8.023 16.904,-12.617 17.164,-34.015c1.609,-132.569 -3.593,-243.152 4.354,-252.979c9.395,-11.617 11.968,-10.092 129.314,-10.141c171.436,-0.073 177.78,-1.503 182.677,14.64c4.91,16.183 -3.453,258.505 5.498,273.026c9.522,15.447 30.572,10.52 274.328,11.293c32.553,0.103 72.597,-3.233 78.589,12.191c7.573,19.494 -0.737,47.671 3.318,201.919Z" style="fill:#c77030;"/><path d="M1789.422,1926.557c0.163,-383.314 0.326,-766.628 0.489,-1149.942c-0.101,-149.395 -3.533,-157.731 16.664,-162.561c3.933,-0.941 34.513,-0.99 37.516,-0.995c234.436,-0.379 253.544,-4.703 260.772,14.21c1.985,5.193 1.669,33.891 1.637,36.841c-0.912,82.995 -2.509,228.397 -1.26,1037.502c0.387,250.939 4.6,257.01 -10.721,263.367c-6.694,2.777 -34.884,3.017 -37.928,3.043c-19.011,0.162 -176.186,1.498 -237.648,0.095c-30.807,-0.703 -28.266,-10.875 -29.52,-41.559Z" style="fill:#c87131;"/><path d="M2092.029,336.841c-3.533,3.033 -45.842,48.187 -135.464,51.504c-114.266,4.229 -214.642,-74.63 -207.464,-211.336c5.289,-100.741 103.86,-197.965 244.544,-173.066c106.955,18.929 179.29,116.062 154.74,236.038c-8.191,40.03 -20.752,61.881 -56.355,96.86Z" style="fill:#c57030;"/></svg>